<svg xmlns="http://www.w3.org/2000/svg" viewBox="0 0 92.18 31.01"><defs><style>.cls-1{fill:#e6143b;}</style></defs><g id="Calque_2" data-name="Calque 2"><g id="Calque_1-2" data-name="Calque 1"><g id="Groupe_3" data-name="Groupe 3"><path id="Tracé_37" data-name="Tracé 37" class="cls-1" d="M46.47,7.72a3.86,3.86,0,1,0-3.86-3.86,3.86,3.86,0,0,0,3.86,3.86"/><path id="Tracé_38" data-name="Tracé 38" class="cls-1" d="M25.84,3.86A3.86,3.86,0,1,1,29.7,7.72h0a3.86,3.86,0,0,1-3.86-3.86"/><path id="Tracé_39" data-name="Tracé 39" class="cls-1" d="M48.47,9.72h0a3.83,3.83,0,0,0-2-.54H39.81c-2.93,0-4.39,1.87-4.39,3.86A3.52,3.52,0,0,0,37,16.1a5.44,5.44,0,0,0,2.66.8h2.8v9.85A4.15,4.15,0,0,0,43,29.14,3.61,3.61,0,0,0,46.34,31a3.47,3.47,0,0,0,3.19-1.87,5.34,5.34,0,0,0,.67-2.79V13.05a3.15,3.15,0,0,0-1.73-3.33"/><path id="Tracé_40" data-name="Tracé 40" class="cls-1" d="M33.29,13.44c0-2.92-1.86-4.39-3.86-4.39a3.52,3.52,0,0,0-3.06,1.6,5.7,5.7,0,0,0-.67,1.73c-.26-.66-2-3.33-6.52-3.33a6.74,6.74,0,0,0-4.26,1.34,7,7,0,0,0-1.6,2.26,4.9,4.9,0,0,0-1.6-2A7.61,7.61,0,0,0,6.53,8.92,6.09,6.09,0,0,0,2,10.52c-1.86,1.73-2,3.72-2,6v9.84A5.16,5.16,0,0,0,.67,29a3.4,3.4,0,0,0,3.06,1.73A3.33,3.33,0,0,0,6,29.94a4.09,4.09,0,0,0,1.6-3.46V18.23c0-1.2,0-1.33.27-1.73a2.18,2.18,0,0,1,2.26-1.6,2.46,2.46,0,0,1,1.87.8,4.27,4.27,0,0,1,.8,2.93v7.85A3.93,3.93,0,0,0,16.09,31a3,3,0,0,0,.42,0,4.44,4.44,0,0,0,2.27-.66c1.73-1.2,1.73-3.33,1.73-4.53V18.23c0-1.06.26-3.06,2.53-3.06a2,2,0,0,1,1.33.4A3.68,3.68,0,0,1,25.7,18.5v8.25a4.1,4.1,0,0,0,.8,2.66A3.74,3.74,0,0,0,29.56,31a4.2,4.2,0,0,0,2.66-1.07,5.14,5.14,0,0,0,1.33-3.45ZM32.23,17.3c-.27.13-.4.13-.67.27H28.23a1.16,1.16,0,0,1-.66-.14.75.75,0,0,1-.54-.8c0-.53.27-.66.8-1.06a14.23,14.23,0,0,0,1.47-1.2c.66-.67,1.06-1.2,1.06-1.73a.76.76,0,0,0-.73-.8h-.07c-.53,0-.66.4-.8.66s-.13.27-.13.4a.73.73,0,0,1-.67.4c-.26,0-.8-.13-.8-.93a2.38,2.38,0,0,1,2.53-2.13,2.32,2.32,0,0,1,2.52,2.09,1.09,1.09,0,0,1,0,.18c0,1.2-.93,2.12-2,2.92-.26.14-.4.4-.66.54h1.86a1,1,0,0,1,.53.13.73.73,0,0,1,.4.67C32.49,17.17,32.36,17.3,32.23,17.3Z"/></g><path class="cls-1" d="M86.18,9.18H61.32a6,6,0,0,0-6,5.94V25a6,6,0,0,0,6,5.94H86.18a6,6,0,0,0,6-5.94v-9.9A6,6,0,0,0,86.18,9.18ZM67.62,22.27a3,3,0,0,1-.69,1,3.19,3.19,0,0,1-1.1.7,4.08,4.08,0,0,1-1.49.26,5.12,5.12,0,0,1-1-.09,6.69,6.69,0,0,1-.9-.27,5.52,5.52,0,0,1-.8-.42,4.57,4.57,0,0,1-.67-.55l.55-.9a.73.73,0,0,1,.18-.17.5.5,0,0,1,.24-.06.62.62,0,0,1,.38.14l.48.32a4.93,4.93,0,0,0,.65.32,2.66,2.66,0,0,0,.9.14,1.89,1.89,0,0,0,1.25-.38,1.39,1.39,0,0,0,.44-1.1,1,1,0,0,0-.2-.65,1.5,1.5,0,0,0-.53-.42,3.66,3.66,0,0,0-.75-.29l-.85-.26a7,7,0,0,1-.86-.34,2.57,2.57,0,0,1-.74-.51,2.24,2.24,0,0,1-.53-.79,2.84,2.84,0,0,1-.2-1.16,2.71,2.71,0,0,1,.22-1.08,2.67,2.67,0,0,1,.64-.93,3.12,3.12,0,0,1,1-.65,3.85,3.85,0,0,1,1.41-.25,4.84,4.84,0,0,1,1.65.28,3.83,3.83,0,0,1,1.29.79l-.46.89a.65.65,0,0,1-.18.21.4.4,0,0,1-.24.07.65.65,0,0,1-.32-.11l-.41-.24a4.24,4.24,0,0,0-.56-.25,2.39,2.39,0,0,0-.75-.1,2.29,2.29,0,0,0-.68.09,1.34,1.34,0,0,0-.49.26,1,1,0,0,0-.3.41,1.19,1.19,0,0,0-.1.51.92.92,0,0,0,.2.6,1.72,1.72,0,0,0,.53.4,5.32,5.32,0,0,0,.75.3l.86.29a6.91,6.91,0,0,1,.85.35,3,3,0,0,1,.75.5,2.17,2.17,0,0,1,.53.75,2.62,2.62,0,0,1,.2,1.07A3.63,3.63,0,0,1,67.62,22.27ZM71,24.16H69.31V17H71Zm.16-8.86a1.21,1.21,0,0,1-.24.35,1.41,1.41,0,0,1-.35.23,1.08,1.08,0,0,1-.44.09,1,1,0,0,1-.42-.09,1,1,0,0,1-.58-.58,1,1,0,0,1-.09-.42,1,1,0,0,1,.09-.43,1.25,1.25,0,0,1,.23-.35,1.21,1.21,0,0,1,.35-.24,1.16,1.16,0,0,1,.42-.08,1.27,1.27,0,0,1,.44.08,1.21,1.21,0,0,1,.35.24,1.09,1.09,0,0,1,.24.35,1,1,0,0,1,.09.43A1,1,0,0,1,71.2,15.3Zm8,2.56a.36.36,0,0,1-.09.26.46.46,0,0,1-.28.12l-.65.12a1.6,1.6,0,0,1,.11.39,1.87,1.87,0,0,1,0,.42,2.19,2.19,0,0,1-.21,1,2.32,2.32,0,0,1-.59.73,2.78,2.78,0,0,1-.89.46,3.65,3.65,0,0,1-1.12.17,4.15,4.15,0,0,1-.79-.08c-.22.14-.33.29-.33.46a.34.34,0,0,0,.19.32,1.46,1.46,0,0,0,.53.14,5.38,5.38,0,0,0,.74.05l.85,0a7.38,7.38,0,0,1,.84.12,2.71,2.71,0,0,1,.74.28,1.55,1.55,0,0,1,.53.52,1.63,1.63,0,0,1,.2.84,2,2,0,0,1-.24.93,2.4,2.4,0,0,1-.68.79,3.31,3.31,0,0,1-1.09.57,4.73,4.73,0,0,1-1.47.22,5.91,5.91,0,0,1-1.42-.16,3.51,3.51,0,0,1-1-.42,1.83,1.83,0,0,1-.6-.61,1.43,1.43,0,0,1-.19-.71,1.2,1.2,0,0,1,.31-.85,2,2,0,0,1,.85-.54,1.1,1.1,0,0,1-.59-1,1.06,1.06,0,0,1,.06-.34,1.54,1.54,0,0,1,.17-.34,1.67,1.67,0,0,1,.29-.31,1.71,1.71,0,0,1,.41-.27,2.24,2.24,0,0,1-.85-.79,2.22,2.22,0,0,1-.1-2.11,2.09,2.09,0,0,1,.59-.73,2.76,2.76,0,0,1,.9-.47,3.79,3.79,0,0,1,1.14-.16,4,4,0,0,1,.87.09,3.25,3.25,0,0,1,.74.28h2.07Zm7.34,6.3H84.76V19.59a1.55,1.55,0,0,0-.3-1,1.15,1.15,0,0,0-.92-.36,1.89,1.89,0,0,0-.84.2A3.38,3.38,0,0,0,82,19v5.2H80.23V17h1.06a.42.42,0,0,1,.44.31l.12.57a3.55,3.55,0,0,1,.46-.41,3.3,3.3,0,0,1,.51-.31,2.66,2.66,0,0,1,.58-.21,3.45,3.45,0,0,1,.67-.07,2.61,2.61,0,0,1,1,.2,2.06,2.06,0,0,1,.76.56,2.45,2.45,0,0,1,.46.86,3.59,3.59,0,0,1,.16,1.11Z"/><path class="cls-1" d="M75.47,18.06a1.29,1.29,0,0,0-1,.31,1.11,1.11,0,0,0-.32.85,1.5,1.5,0,0,0,.08.47,1,1,0,0,0,.24.37.93.93,0,0,0,.4.24,1.55,1.55,0,0,0,.55.09A1.57,1.57,0,0,0,76,20.3a1,1,0,0,0,.4-.24,1.08,1.08,0,0,0,.24-.37,1.4,1.4,0,0,0,.08-.47,1.15,1.15,0,0,0-.32-.85A1.31,1.31,0,0,0,75.47,18.06Z"/><path class="cls-1" d="M73.79,24.56a.69.69,0,0,0,.39.64,2,2,0,0,0,.54.19,4.5,4.5,0,0,0,.8.06,4,4,0,0,0,.83-.07,1.86,1.86,0,0,0,.58-.21.9.9,0,0,0,.33-.31.83.83,0,0,0,.11-.4.48.48,0,0,0-.13-.35.82.82,0,0,0-.34-.21,2.16,2.16,0,0,0-.51-.11,4,4,0,0,0-.61,0h-.67a2.41,2.41,0,0,1-.67-.08,1.58,1.58,0,0,0-.48.39A.8.8,0,0,0,73.79,24.56Z"/></g></g></svg>